<svg xmlns="http://www.w3.org/2000/svg" xmlns:xlink="http://www.w3.org/1999/xlink" width="1500" zoomAndPan="magnify" viewBox="0 0 1125 374.999991" height="500" preserveAspectRatio="xMidYMid meet" version="1.0"><defs><g/><clipPath id="6bc579c346"><path d="M 0.160156 1 L 68 1 L 68 125 L 0.160156 125 Z M 0.160156 1 " clip-rule="nonzero"/></clipPath><clipPath id="d9d40ccab9"><path d="M 95 98 L 120 98 L 120 168 L 95 168 Z M 95 98 " clip-rule="nonzero"/></clipPath><clipPath id="29a66fa898"><path d="M 95.265625 132.777344 C 95.265625 130.359375 95.5 127.960938 95.972656 125.585938 C 96.445312 123.214844 97.144531 120.910156 98.070312 118.671875 C 98.996094 116.4375 100.132812 114.3125 101.476562 112.300781 C 102.824219 110.289062 104.351562 108.425781 106.0625 106.714844 C 107.773438 105.003906 109.636719 103.472656 111.648438 102.128906 C 113.660156 100.785156 115.785156 99.648438 118.019531 98.722656 C 120.257812 97.796875 122.5625 97.097656 124.9375 96.625 C 127.308594 96.152344 129.707031 95.917969 132.128906 95.917969 C 134.546875 95.917969 136.945312 96.152344 139.320312 96.625 C 141.691406 97.097656 143.996094 97.796875 146.234375 98.722656 C 148.46875 99.648438 150.59375 100.785156 152.605469 102.128906 C 154.617188 103.472656 156.480469 105.003906 158.191406 106.714844 C 159.902344 108.425781 161.433594 110.289062 162.777344 112.300781 C 164.121094 114.3125 165.257812 116.4375 166.183594 118.671875 C 167.109375 120.910156 167.808594 123.214844 168.28125 125.585938 C 168.753906 127.960938 168.988281 130.359375 168.988281 132.777344 C 168.988281 135.199219 168.753906 137.597656 168.28125 139.96875 C 167.808594 142.34375 167.109375 144.648438 166.183594 146.886719 C 165.257812 149.121094 164.121094 151.246094 162.777344 153.257812 C 161.433594 155.269531 159.902344 157.132812 158.191406 158.84375 C 156.480469 160.554688 154.617188 162.082031 152.605469 163.429688 C 150.59375 164.773438 148.46875 165.90625 146.234375 166.835938 C 143.996094 167.761719 141.691406 168.460938 139.320312 168.933594 C 136.945312 169.402344 134.546875 169.640625 132.128906 169.640625 C 129.707031 169.640625 127.308594 169.402344 124.9375 168.933594 C 122.5625 168.460938 120.257812 167.761719 118.019531 166.835938 C 115.785156 165.90625 113.660156 164.773438 111.648438 163.429688 C 109.636719 162.082031 107.773438 160.554688 106.0625 158.84375 C 104.351562 157.132812 102.824219 155.269531 101.476562 153.257812 C 100.132812 151.246094 98.996094 149.121094 98.070312 146.886719 C 97.144531 144.648438 96.445312 142.34375 95.972656 139.96875 C 95.5 137.597656 95.265625 135.199219 95.265625 132.777344 Z M 95.265625 132.777344 " clip-rule="nonzero"/></clipPath><clipPath id="7b8f235045"><path d="M 144 98 L 169 98 L 169 168 L 144 168 Z M 144 98 " clip-rule="nonzero"/></clipPath><clipPath id="f250831ec5"><path d="M 95.265625 132.777344 C 95.265625 130.359375 95.5 127.960938 95.972656 125.585938 C 96.445312 123.214844 97.144531 120.910156 98.070312 118.671875 C 98.996094 116.4375 100.132812 114.3125 101.476562 112.300781 C 102.824219 110.289062 104.351562 108.425781 106.0625 106.714844 C 107.773438 105.003906 109.636719 103.472656 111.648438 102.128906 C 113.660156 100.785156 115.785156 99.648438 118.019531 98.722656 C 120.257812 97.796875 122.5625 97.097656 124.9375 96.625 C 127.308594 96.152344 129.707031 95.917969 132.128906 95.917969 C 134.546875 95.917969 136.945312 96.152344 139.320312 96.625 C 141.691406 97.097656 143.996094 97.796875 146.234375 98.722656 C 148.46875 99.648438 150.59375 100.785156 152.605469 102.128906 C 154.617188 103.472656 156.480469 105.003906 158.191406 106.714844 C 159.902344 108.425781 161.433594 110.289062 162.777344 112.300781 C 164.121094 114.3125 165.257812 116.4375 166.183594 118.671875 C 167.109375 120.910156 167.808594 123.214844 168.28125 125.585938 C 168.753906 127.960938 168.988281 130.359375 168.988281 132.777344 C 168.988281 135.199219 168.753906 137.597656 168.28125 139.96875 C 167.808594 142.34375 167.109375 144.648438 166.183594 146.886719 C 165.257812 149.121094 164.121094 151.246094 162.777344 153.257812 C 161.433594 155.269531 159.902344 157.132812 158.191406 158.84375 C 156.480469 160.554688 154.617188 162.082031 152.605469 163.429688 C 150.59375 164.773438 148.46875 165.90625 146.234375 166.835938 C 143.996094 167.761719 141.691406 168.460938 139.320312 168.933594 C 136.945312 169.402344 134.546875 169.640625 132.128906 169.640625 C 129.707031 169.640625 127.308594 169.402344 124.9375 168.933594 C 122.5625 168.460938 120.257812 167.761719 118.019531 166.835938 C 115.785156 165.90625 113.660156 164.773438 111.648438 163.429688 C 109.636719 162.082031 107.773438 160.554688 106.0625 158.84375 C 104.351562 157.132812 102.824219 155.269531 101.476562 153.257812 C 100.132812 151.246094 98.996094 149.121094 98.070312 146.886719 C 97.144531 144.648438 96.445312 142.34375 95.972656 139.96875 C 95.5 137.597656 95.265625 135.199219 95.265625 132.777344 Z M 95.265625 132.777344 " clip-rule="nonzero"/></clipPath><clipPath id="82f69277e0"><path d="M 119 95 L 145 95 L 145 170 L 119 170 Z M 119 95 " clip-rule="nonzero"/></clipPath><clipPath id="d9f57556b8"><path d="M 95.265625 132.777344 C 95.265625 130.359375 95.5 127.960938 95.972656 125.585938 C 96.445312 123.214844 97.144531 120.910156 98.070312 118.671875 C 98.996094 116.4375 100.132812 114.3125 101.476562 112.300781 C 102.824219 110.289062 104.351562 108.425781 106.0625 106.714844 C 107.773438 105.003906 109.636719 103.472656 111.648438 102.128906 C 113.660156 100.785156 115.785156 99.648438 118.019531 98.722656 C 120.257812 97.796875 122.5625 97.097656 124.9375 96.625 C 127.308594 96.152344 129.707031 95.917969 132.128906 95.917969 C 134.546875 95.917969 136.945312 96.152344 139.320312 96.625 C 141.691406 97.097656 143.996094 97.796875 146.234375 98.722656 C 148.46875 99.648438 150.59375 100.785156 152.605469 102.128906 C 154.617188 103.472656 156.480469 105.003906 158.191406 106.714844 C 159.902344 108.425781 161.433594 110.289062 162.777344 112.300781 C 164.121094 114.3125 165.257812 116.4375 166.183594 118.671875 C 167.109375 120.910156 167.808594 123.214844 168.28125 125.585938 C 168.753906 127.960938 168.988281 130.359375 168.988281 132.777344 C 168.988281 135.199219 168.753906 137.597656 168.28125 139.96875 C 167.808594 142.34375 167.109375 144.648438 166.183594 146.886719 C 165.257812 149.121094 164.121094 151.246094 162.777344 153.257812 C 161.433594 155.269531 159.902344 157.132812 158.191406 158.84375 C 156.480469 160.554688 154.617188 162.082031 152.605469 163.429688 C 150.59375 164.773438 148.46875 165.90625 146.234375 166.835938 C 143.996094 167.761719 141.691406 168.460938 139.320312 168.933594 C 136.945312 169.402344 134.546875 169.640625 132.128906 169.640625 C 129.707031 169.640625 127.308594 169.402344 124.9375 168.933594 C 122.5625 168.460938 120.257812 167.761719 118.019531 166.835938 C 115.785156 165.90625 113.660156 164.773438 111.648438 163.429688 C 109.636719 162.082031 107.773438 160.554688 106.0625 158.84375 C 104.351562 157.132812 102.824219 155.269531 101.476562 153.257812 C 100.132812 151.246094 98.996094 149.121094 98.070312 146.886719 C 97.144531 144.648438 96.445312 142.34375 95.972656 139.96875 C 95.5 137.597656 95.265625 135.199219 95.265625 132.777344 Z M 95.265625 132.777344 " clip-rule="nonzero"/></clipPath><clipPath id="2c9ab2b961"><path d="M 201 41 L 914.238281 41 L 914.238281 128 L 201 128 Z M 201 41 " clip-rule="nonzero"/></clipPath><clipPath id="518797d0a0"><path d="M 4 0.28125 L 68 0.28125 L 68 70 L 4 70 Z M 4 0.28125 " clip-rule="nonzero"/></clipPath><clipPath id="5b70ff59f9"><path d="M 136 18 L 194 18 L 194 86.441406 L 136 86.441406 Z M 136 18 " clip-rule="nonzero"/></clipPath><clipPath id="78801a3843"><path d="M 643 0.28125 L 710 0.28125 L 710 70 L 643 70 Z M 643 0.28125 " clip-rule="nonzero"/></clipPath><clipPath id="60c570f886"><rect x="0" width="714" y="0" height="87"/></clipPath><clipPath id="5d5cc5aefb"><rect x="0" width="915" y="0" height="171"/></clipPath></defs><g transform="matrix(1, 0, 0, 1, 112, 102)"><g clip-path="url(#5d5cc5aefb)"><g clip-path="url(#6bc579c346)"><path fill="#ffffff" d="M 30.355469 1.703125 C 15.984375 2.675781 7.410156 6.65625 3.253906 14.269531 C 2.074219 16.421875 1.101562 19.542969 0.640625 22.597656 C 0.109375 26.277344 0.292969 34.515625 0.964844 37.40625 C 3.945312 50.089844 12.65625 57.609375 28.507812 61.125 L 30.933594 61.65625 L 15.636719 61.679688 L 0.316406 61.703125 L 0.316406 124.433594 L 20.605469 124.34375 C 42.371094 124.25 42 124.273438 47.800781 123 C 60.023438 120.292969 66.214844 113.746094 67.578125 102.199219 C 67.949219 98.84375 67.71875 92.292969 67.140625 89.703125 C 64.414062 77.972656 56.140625 69.6875 42.601562 65.152344 L 39.945312 64.273438 L 53.878906 64.25 L 67.789062 64.25 L 67.789062 1.542969 L 49.601562 1.585938 C 39.574219 1.609375 30.933594 1.65625 30.355469 1.703125 Z M 30.355469 1.703125 " fill-opacity="1" fill-rule="nonzero"/></g><path fill="#ffffff" d="M 79.238281 91.566406 C 78.28125 86.375 78.28125 81.007812 77.832031 22.410156 L 77.671875 1.539062 L 125.546875 1.539062 L 125.546875 20.28125 L 159.328125 20.28125 L 159.210938 28.542969 C 159.097656 37.542969 158.933594 39.117188 157.664062 43.191406 C 156.230469 47.839844 153.78125 51.914062 150.199219 55.617188 C 144.886719 61.101562 138.53125 64.246094 130.859375 65.171875 C 129.796875 65.289062 128.15625 65.40625 127.234375 65.40625 L 125.546875 65.40625 L 125.546875 82.894531 C 108.515625 85.003906 94.152344 95.707031 86.925781 110.527344 C 83.457031 106.011719 81.019531 100.40625 79.679688 93.796875 C 79.511719 92.96875 79.367188 92.269531 79.238281 91.566406 Z M 97.71875 119.535156 C 100.703125 121.074219 104.015625 122.226562 107.640625 122.976562 C 111.519531 123.785156 113.417969 123.96875 119.609375 124.109375 L 125.546875 124.246094 L 125.546875 96.5 C 123.578125 96.851562 121.664062 97.359375 119.839844 98.007812 C 109.722656 101.582031 101.589844 109.492188 97.71875 119.535156 Z M 97.71875 119.535156 " fill-opacity="1" fill-rule="nonzero"/><g clip-path="url(#d9d40ccab9)"><g clip-path="url(#29a66fa898)"><path fill="#007e2c" d="M 95.265625 132.78125 C 95.265625 148.878906 105.585938 162.519531 119.839844 167.554688 L 119.839844 98.011719 C 109.722656 101.585938 101.589844 109.492188 97.71875 119.535156 C 96.132812 123.644531 95.265625 128.109375 95.265625 132.78125 Z M 95.265625 132.78125 " fill-opacity="1" fill-rule="nonzero"/></g></g><g clip-path="url(#7b8f235045)"><g clip-path="url(#f250831ec5)"><path fill="#007e2c" d="M 168.988281 132.785156 C 168.988281 116.6875 158.789062 103.050781 144.414062 98.011719 L 144.414062 167.554688 C 158.789062 162.519531 168.988281 148.878906 168.988281 132.785156 Z M 168.988281 132.785156 " fill-opacity="1" fill-rule="nonzero"/></g></g><g clip-path="url(#82f69277e0)"><g clip-path="url(#d9f57556b8)"><path fill="#f9f9f9" d="M 119.839844 167.554688 C 123.648438 168.90625 127.824219 169.640625 132.125 169.640625 C 136.425781 169.640625 140.605469 168.90625 144.414062 167.554688 L 144.414062 98.007812 C 140.605469 96.65625 136.425781 95.917969 132.125 95.917969 C 129.886719 95.917969 127.683594 96.121094 125.546875 96.503906 C 123.578125 96.855469 121.664062 97.359375 119.839844 98.007812 Z M 119.839844 167.554688 " fill-opacity="1" fill-rule="nonzero"/></g></g><g clip-path="url(#2c9ab2b961)"><g transform="matrix(1, 0, 0, 1, 201, 41)"><g clip-path="url(#60c570f886)"><g clip-path="url(#518797d0a0)"><g fill="#ffffff" fill-opacity="1"><g transform="translate(1.698457, 68.13013)"><g><path d="M 2.4375 -20.546875 L 23.078125 -20.546875 C 23.742188 -18.984375 24.9375 -17.535156 26.65625 -16.203125 C 28.375 -14.878906 31.195312 -14.21875 35.125 -14.21875 C 38.6875 -14.21875 41.175781 -14.789062 42.59375 -15.9375 C 44.007812 -17.082031 44.71875 -18.5 44.71875 -20.1875 L 44.71875 -20.375 C 44.71875 -23.082031 43.148438 -24.5625 40.015625 -24.8125 L 19.375 -26.53125 C 14.425781 -26.945312 10.515625 -28.664062 7.640625 -31.6875 C 4.773438 -34.707031 3.34375 -39.050781 3.34375 -44.71875 L 3.34375 -44.90625 C 3.34375 -49.488281 4.367188 -53.46875 6.421875 -56.84375 C 8.472656 -60.226562 11.6875 -62.84375 16.0625 -64.6875 C 20.445312 -66.53125 26.164062 -67.453125 33.21875 -67.453125 C 40.164062 -67.453125 45.78125 -66.546875 50.0625 -64.734375 C 54.34375 -62.921875 57.597656 -60.414062 59.828125 -57.21875 C 62.066406 -54.019531 63.582031 -50.273438 64.375 -45.984375 L 43.90625 -45.984375 C 43.363281 -47.492188 42.289062 -48.851562 40.6875 -50.0625 C 39.09375 -51.269531 36.546875 -51.875 33.046875 -51.875 C 29.722656 -51.875 27.351562 -51.316406 25.9375 -50.203125 C 24.519531 -49.085938 23.8125 -47.710938 23.8125 -46.078125 L 23.8125 -45.90625 C 23.8125 -43.25 25.320312 -41.796875 28.34375 -41.546875 L 48.890625 -40.015625 C 54.078125 -39.585938 58.117188 -37.847656 61.015625 -34.796875 C 63.910156 -31.753906 65.359375 -27.335938 65.359375 -21.546875 L 65.359375 -21.359375 C 65.359375 -16.773438 64.316406 -12.773438 62.234375 -9.359375 C 60.148438 -5.953125 56.832031 -3.3125 52.28125 -1.4375 C 47.726562 0.425781 41.769531 1.359375 34.40625 1.359375 C 27.21875 1.359375 21.40625 0.46875 16.96875 -1.3125 C 12.539062 -3.09375 9.175781 -5.625 6.875 -8.90625 C 4.582031 -12.195312 3.101562 -16.078125 2.4375 -20.546875 Z M 2.4375 -20.546875 "/></g></g></g></g><g fill="#ffffff" fill-opacity="1"><g transform="translate(69.688729, 68.13013)"><g><path d="M 21.546875 1.359375 C 15.867188 1.359375 11.460938 -0.253906 8.328125 -3.484375 C 5.191406 -6.710938 3.625 -11.523438 3.625 -17.921875 L 3.625 -47.984375 L 23.171875 -47.984375 L 23.171875 -22.1875 C 23.171875 -19.582031 23.773438 -17.660156 24.984375 -16.421875 C 26.191406 -15.191406 27.910156 -14.578125 30.140625 -14.578125 C 32.617188 -14.578125 34.597656 -15.300781 36.078125 -16.75 C 37.554688 -18.195312 38.296875 -20.160156 38.296875 -22.640625 L 38.296875 -47.984375 L 57.84375 -47.984375 L 57.84375 0 L 38.46875 0 L 38.46875 -9.234375 C 37.144531 -5.734375 35.050781 -3.09375 32.1875 -1.3125 C 29.320312 0.46875 25.773438 1.359375 21.546875 1.359375 Z M 21.546875 1.359375 "/></g></g></g><g clip-path="url(#5b70ff59f9)"><g fill="#ffffff" fill-opacity="1"><g transform="translate(131.794352, 68.13013)"><g><path d="M 40.921875 -49.34375 C 47.316406 -49.34375 52.335938 -47.378906 55.984375 -43.453125 C 59.640625 -39.535156 61.46875 -33.441406 61.46875 -25.171875 L 61.46875 -22.8125 C 61.46875 -14.601562 59.640625 -8.519531 55.984375 -4.5625 C 52.335938 -0.613281 47.316406 1.359375 40.921875 1.359375 C 36.929688 1.359375 33.472656 0.578125 30.546875 -0.984375 C 27.617188 -2.554688 25.375 -4.914062 23.8125 -8.0625 L 23.8125 18.109375 L 4.25 18.109375 L 4.25 -47.984375 L 23.625 -47.984375 L 23.625 -39.5625 C 25.257812 -42.9375 27.539062 -45.410156 30.46875 -46.984375 C 33.394531 -48.554688 36.878906 -49.34375 40.921875 -49.34375 Z M 32.6875 -13.21875 C 35.394531 -13.21875 37.546875 -14.046875 39.140625 -15.703125 C 40.742188 -17.367188 41.546875 -19.738281 41.546875 -22.8125 L 41.546875 -25.171875 C 41.546875 -28.242188 40.742188 -30.609375 39.140625 -32.265625 C 37.546875 -33.929688 35.394531 -34.765625 32.6875 -34.765625 C 29.96875 -34.765625 27.804688 -33.929688 26.203125 -32.265625 C 24.609375 -30.609375 23.8125 -28.242188 23.8125 -25.171875 L 23.8125 -22.8125 C 23.8125 -19.738281 24.609375 -17.367188 26.203125 -15.703125 C 27.804688 -14.046875 29.96875 -13.21875 32.6875 -13.21875 Z M 32.6875 -13.21875 "/></g></g></g></g><g fill="#ffffff" fill-opacity="1"><g transform="translate(196.253854, 68.13013)"><g><path d="M 59.75 -16.109375 C 59.320312 -13.148438 58.128906 -10.34375 56.171875 -7.6875 C 54.210938 -5.039062 51.238281 -2.867188 47.25 -1.171875 C 43.269531 0.515625 38.019531 1.359375 31.5 1.359375 C 21.539062 1.359375 14.207031 -0.796875 9.5 -5.109375 C 4.789062 -9.429688 2.4375 -15.332031 2.4375 -22.8125 L 2.4375 -25.171875 C 2.4375 -32.710938 4.789062 -38.625 9.5 -42.90625 C 14.207031 -47.195312 21.539062 -49.34375 31.5 -49.34375 C 41.21875 -49.34375 48.414062 -47.195312 53.09375 -42.90625 C 57.769531 -38.625 60.109375 -32.710938 60.109375 -25.171875 L 60.109375 -20.375 L 22.359375 -20.375 C 22.484375 -17.476562 23.359375 -15.257812 24.984375 -13.71875 C 26.617188 -12.175781 28.820312 -11.40625 31.59375 -11.40625 C 34.070312 -11.40625 35.988281 -11.929688 37.34375 -12.984375 C 38.695312 -14.046875 39.523438 -15.085938 39.828125 -16.109375 Z M 22.546875 -30.515625 L 40.015625 -30.515625 C 39.234375 -35.398438 36.335938 -37.84375 31.328125 -37.84375 C 28.910156 -37.84375 26.945312 -37.238281 25.4375 -36.03125 C 23.925781 -34.820312 22.960938 -32.984375 22.546875 -30.515625 Z M 22.546875 -30.515625 "/></g></g></g><g fill="#ffffff" fill-opacity="1"><g transform="translate(258.812157, 68.13013)"><g><path d="M 38.015625 -47.984375 L 41.640625 -47.984375 L 41.640625 -29.6875 L 36.84375 -29.6875 C 32.375 -29.6875 29.082031 -28.644531 26.96875 -26.5625 C 24.863281 -24.488281 23.8125 -21.273438 23.8125 -16.921875 L 23.8125 0 L 4.25 0 L 4.25 -47.984375 L 23.359375 -47.984375 L 23.359375 -34.578125 C 24.378906 -39.410156 26.15625 -42.851562 28.6875 -44.90625 C 31.226562 -46.957031 34.335938 -47.984375 38.015625 -47.984375 Z M 38.015625 -47.984375 "/></g></g></g><g fill="#ffffff" fill-opacity="1"><g transform="translate(303.807075, 68.13013)"><g><path d="M 46.625 -33.5 L 31.046875 -33.5 L 31.046875 -21.1875 C 31.046875 -19.613281 31.554688 -18.328125 32.578125 -17.328125 C 33.609375 -16.335938 35.09375 -15.84375 37.03125 -15.84375 L 46.71875 -15.84375 L 46.71875 0 L 28.96875 0 C 22.9375 0 18.515625 -1.296875 15.703125 -3.890625 C 12.898438 -6.484375 11.5 -10.378906 11.5 -15.578125 L 11.5 -33.5 L 1.8125 -33.5 L 1.8125 -47.984375 L 11.5 -47.984375 L 11.5 -58.84375 L 31.046875 -62.46875 L 31.046875 -47.984375 L 46.625 -47.984375 Z M 46.625 -33.5 "/></g></g></g><g fill="#ffffff" fill-opacity="1"><g transform="translate(352.423266, 68.13013)"><g><path d="M 59.75 -16.109375 C 59.320312 -13.148438 58.128906 -10.34375 56.171875 -7.6875 C 54.210938 -5.039062 51.238281 -2.867188 47.25 -1.171875 C 43.269531 0.515625 38.019531 1.359375 31.5 1.359375 C 21.539062 1.359375 14.207031 -0.796875 9.5 -5.109375 C 4.789062 -9.429688 2.4375 -15.332031 2.4375 -22.8125 L 2.4375 -25.171875 C 2.4375 -32.710938 4.789062 -38.625 9.5 -42.90625 C 14.207031 -47.195312 21.539062 -49.34375 31.5 -49.34375 C 41.21875 -49.34375 48.414062 -47.195312 53.09375 -42.90625 C 57.769531 -38.625 60.109375 -32.710938 60.109375 -25.171875 L 60.109375 -20.375 L 22.359375 -20.375 C 22.484375 -17.476562 23.359375 -15.257812 24.984375 -13.71875 C 26.617188 -12.175781 28.820312 -11.40625 31.59375 -11.40625 C 34.070312 -11.40625 35.988281 -11.929688 37.34375 -12.984375 C 38.695312 -14.046875 39.523438 -15.085938 39.828125 -16.109375 Z M 22.546875 -30.515625 L 40.015625 -30.515625 C 39.234375 -35.398438 36.335938 -37.84375 31.328125 -37.84375 C 28.910156 -37.84375 26.945312 -37.238281 25.4375 -36.03125 C 23.925781 -34.820312 22.960938 -32.984375 22.546875 -30.515625 Z M 22.546875 -30.515625 "/></g></g></g><g fill="#ffffff" fill-opacity="1"><g transform="translate(414.70993, 68.13013)"><g><path d="M 32.5 -49.34375 C 42.039062 -49.34375 48.847656 -47.664062 52.921875 -44.3125 C 56.992188 -40.96875 59.03125 -36.273438 59.03125 -30.234375 L 59.03125 0 L 39.65625 0 L 39.65625 -8.140625 C 35.96875 -1.804688 29.269531 1.359375 19.5625 1.359375 C 13.695312 1.359375 9.421875 0.148438 6.734375 -2.265625 C 4.054688 -4.679688 2.71875 -8 2.71875 -12.21875 C 2.71875 -16.320312 3.953125 -19.550781 6.421875 -21.90625 C 8.898438 -24.257812 12.914062 -25.675781 18.46875 -26.15625 L 29.15625 -27.15625 C 31.8125 -27.394531 33.800781 -27.710938 35.125 -28.109375 C 36.457031 -28.503906 37.347656 -28.988281 37.796875 -29.5625 C 38.242188 -30.132812 38.46875 -30.78125 38.46875 -31.5 C 38.46875 -32.707031 37.984375 -33.671875 37.015625 -34.390625 C 36.054688 -35.117188 34.519531 -35.484375 32.40625 -35.484375 C 29.8125 -35.484375 27.863281 -34.96875 26.5625 -33.9375 C 25.269531 -32.914062 24.382812 -31.710938 23.90625 -30.328125 L 4.53125 -30.328125 C 5.132812 -34.253906 6.414062 -37.632812 8.375 -40.46875 C 10.332031 -43.300781 13.257812 -45.488281 17.15625 -47.03125 C 21.050781 -48.570312 26.164062 -49.34375 32.5 -49.34375 Z M 27.96875 -10.5 C 31.351562 -10.5 34.113281 -11.445312 36.25 -13.34375 C 38.394531 -15.25 39.46875 -17.59375 39.46875 -20.375 L 39.46875 -23.90625 C 39.050781 -23.300781 38.238281 -22.5625 37.03125 -21.6875 C 35.820312 -20.8125 34.25 -20.101562 32.3125 -19.5625 L 26.4375 -17.921875 C 24.925781 -17.503906 23.867188 -17.019531 23.265625 -16.46875 C 22.660156 -15.925781 22.359375 -15.203125 22.359375 -14.296875 C 22.359375 -13.148438 22.78125 -12.226562 23.625 -11.53125 C 24.46875 -10.84375 25.914062 -10.5 27.96875 -10.5 Z M 27.96875 -10.5 "/></g></g></g><g fill="#ffffff" fill-opacity="1"><g transform="translate(477.358771, 68.13013)"><g><path d="M 40.28125 -49.34375 C 44.632812 -49.34375 48.195312 -48.300781 50.96875 -46.21875 C 53.75 -44.132812 55.585938 -40.921875 56.484375 -36.578125 C 57.390625 -40.859375 59.320312 -44.054688 62.28125 -46.171875 C 65.238281 -48.285156 69.015625 -49.34375 73.609375 -49.34375 C 78.910156 -49.34375 83.039062 -47.832031 86 -44.8125 C 88.957031 -41.789062 90.4375 -37.328125 90.4375 -31.421875 L 90.4375 0 L 71.0625 0 L 71.0625 -26.25 C 71.0625 -28.664062 70.488281 -30.460938 69.34375 -31.640625 C 68.195312 -32.816406 66.628906 -33.40625 64.640625 -33.40625 C 62.410156 -33.40625 60.582031 -32.695312 59.15625 -31.28125 C 57.738281 -29.863281 57.03125 -27.945312 57.03125 -25.53125 L 57.03125 0 L 37.65625 0 L 37.65625 -26.25 C 37.65625 -28.664062 37.082031 -30.460938 35.9375 -31.640625 C 34.789062 -32.816406 33.222656 -33.40625 31.234375 -33.40625 C 29.003906 -33.40625 27.175781 -32.695312 25.75 -31.28125 C 24.332031 -29.863281 23.625 -27.945312 23.625 -25.53125 L 23.625 0 L 4.25 0 L 4.25 -47.984375 L 23.625 -47.984375 L 23.625 -37.484375 C 24.71875 -41.398438 26.710938 -44.351562 29.609375 -46.34375 C 32.503906 -48.34375 36.0625 -49.34375 40.28125 -49.34375 Z M 40.28125 -49.34375 "/></g></g></g><g fill="#ffffff" fill-opacity="1"><g transform="translate(571.422536, 68.13013)"><g><path d="M 46.359375 -66.09375 L 65.1875 -66.09375 L 65.1875 0 L 44.546875 0 L 23.171875 -39.75 L 23.171875 0 L 4.34375 0 L 4.34375 -66.09375 L 26.53125 -66.09375 L 46.359375 -29.421875 Z M 46.359375 -66.09375 "/></g></g></g><g clip-path="url(#78801a3843)"><g fill="#ffffff" fill-opacity="1"><g transform="translate(640.951865, 68.13013)"><g><path d="M 28.78125 1.359375 C 20.457031 1.359375 14 -1.097656 9.40625 -6.015625 C 4.820312 -10.941406 2.53125 -18.5625 2.53125 -28.875 L 2.53125 -34.859375 C 2.53125 -56.585938 13.515625 -67.453125 35.484375 -67.453125 C 42.671875 -67.453125 48.570312 -66.363281 53.1875 -64.1875 C 57.800781 -62.007812 61.269531 -59.003906 63.59375 -55.171875 C 65.914062 -51.347656 67.203125 -46.957031 67.453125 -42 L 46.53125 -42 C 46.226562 -44.300781 45.15625 -46.3125 43.3125 -48.03125 C 41.476562 -49.75 38.867188 -50.609375 35.484375 -50.609375 C 31.804688 -50.609375 28.878906 -49.414062 26.703125 -47.03125 C 24.535156 -44.644531 23.453125 -41.007812 23.453125 -36.125 L 23.453125 -29.875 C 23.453125 -25.050781 24.628906 -21.414062 26.984375 -18.96875 C 29.335938 -16.519531 32.625 -15.296875 36.84375 -15.296875 C 40.582031 -15.296875 43.398438 -16.109375 45.296875 -17.734375 C 47.203125 -19.367188 48.15625 -21.210938 48.15625 -23.265625 L 35.125 -23.265625 L 35.125 -36.578125 L 68.4375 -36.578125 L 68.4375 0 L 49.0625 0 L 49.0625 -8.78125 C 45.445312 -2.019531 38.6875 1.359375 28.78125 1.359375 Z M 28.78125 1.359375 "/></g></g></g></g></g></g></g></g></g><g fill="#ffffff" fill-opacity="1"><g transform="translate(559.605457, 189.749988)"><g><path d="M 5.046875 -6.359375 L 5.515625 -6.359375 L 5.515625 -3.9375 L 4.890625 -3.9375 C 4.296875 -3.9375 3.859375 -3.796875 3.578125 -3.515625 C 3.296875 -3.242188 3.15625 -2.820312 3.15625 -2.25 L 3.15625 0 L 0.5625 0 L 0.5625 -6.359375 L 3.09375 -6.359375 L 3.09375 -4.578125 C 3.226562 -5.222656 3.460938 -5.679688 3.796875 -5.953125 C 4.140625 -6.222656 4.554688 -6.359375 5.046875 -6.359375 Z M 5.046875 -6.359375 "/></g></g></g></svg>